<?xml version="1.0" encoding="utf-8"?>
<!-- Generator: Adobe Illustrator 27.6.1, SVG Export Plug-In . SVG Version: 6.00 Build 0)  -->
<svg version="1.1" id="Livello_1" xmlns="http://www.w3.org/2000/svg" xmlns:xlink="http://www.w3.org/1999/xlink" x="0px" y="0px"
	 viewBox="0 0 100 100" style="enable-background:new 0 0 100 100;" xml:space="preserve">
<style type="text/css">
	.st0{fill:url(#SVGID_1_);}
</style>
<g id="rUW76U_00000004530151695546713670000004930460092381789117_">
	<g>
		<linearGradient id="SVGID_1_" gradientUnits="userSpaceOnUse" x1="3.9494" y1="67.9916" x2="92.4259" y2="35.376">
			<stop  offset="0" style="stop-color:#000000"/>
			<stop  offset="0.5056" style="stop-color:#7E3FFF"/>
			<stop  offset="1" style="stop-color:#E900D0"/>
		</linearGradient>
		<path class="st0" d="M69.5,57.95c-2.46,1.01-4.93,1.99-7.39,2.98c-7.19,2.88-14.67,4.6-22.27,5.88
			c-6.27,1.06-12.57,1.76-18.94,1.61c-2.89-0.07-5.77-0.33-8.56-1.17c-1.37-0.41-2.66-0.98-3.8-1.87c-2.21-1.73-2.86-4.4-1.7-6.96
			c0.97-2.13,2.62-3.68,4.41-5.09c3.45-2.71,7.32-4.72,11.27-6.57c1.47-0.69,2.95-1.33,4.45-1.95c0.55-0.23,0.85-0.56,1.07-1.12
			c3.1-8.32,8.96-13.54,17.69-15.25c6.87-1.35,13.09,0.41,18.58,4.72c0.75,0.59,1.4,0.79,2.35,0.63c4.64-0.78,9.32-1.34,14.04-1.25
			c2.44,0.05,4.88,0.26,7.22,1.03c1.36,0.45,2.63,1.09,3.61,2.18c1.69,1.88,1.86,4.34,0.49,6.8c-1.3,2.34-3.25,4.08-5.33,5.68
			c-4.17,3.2-8.76,5.7-13.49,7.96c-0.66,0.31-0.99,0.73-1.23,1.43c-3,9.02-9.16,14.52-18.54,16.22c-5.16,0.94-10.05-0.08-14.66-2.56
			c-0.2-0.11-0.4-0.21-0.58-0.34c-0.17-0.12-0.49-0.17-0.46-0.43c0.03-0.27,0.35-0.23,0.55-0.28c1.57-0.38,3.16-0.71,4.73-1.1
			c7.67-1.94,15.19-4.32,22.14-8.21C66.67,60.05,68.16,59.11,69.5,57.95z M76.54,36.75c-2.54-0.03-5.07,0.15-7.6,0.4
			c-0.5,0.05-0.6,0.17-0.28,0.62c2.35,3.32,3.74,7.01,4.12,11.06c0.04,0.41,0.19,0.6,0.63,0.4c4.27-1.88,8.45-3.91,12.09-6.89
			c0.79-0.65,1.52-1.37,2.08-2.24c0.55-0.85,0.45-1.24-0.43-1.74c-0.72-0.41-1.5-0.66-2.3-0.85C82.11,36.86,79.34,36.72,76.54,36.75
			z M19.99,62.44c2.73,0.06,5.67-0.3,8.62-0.65c0.58-0.07,0.71-0.27,0.44-0.82c-1.66-3.43-2.36-7.06-2.25-10.86
			c0.02-0.79-0.04-0.83-0.72-0.49c-3.36,1.65-6.63,3.44-9.66,5.66c-1.75,1.28-3.47,2.62-4.64,4.49c-0.58,0.92-0.44,1.32,0.54,1.73
			c0.46,0.19,0.94,0.34,1.42,0.46C15.71,62.43,17.73,62.47,19.99,62.44z"/>
	</g>
</g>
</svg>
